<?xml version="1.0" encoding="utf-8"?>
<!-- Generator: Adobe Illustrator 24.3.0, SVG Export Plug-In . SVG Version: 6.00 Build 0)  -->
<svg version="1.1" id="vector" xmlns="http://www.w3.org/2000/svg" xmlns:xlink="http://www.w3.org/1999/xlink" x="0px" y="0px"
	 viewBox="0 0 899 803" enable-background="new 0 0 899 803" xml:space="preserve">
<path fill="#21CCC3" stroke="#21CCC3" stroke-miterlimit="10" d="M435.181,529.163c1.612,0.006-4.182,107.595-4.182,107.595
	s13.57,24.338,26.702,0l-3.572-107.601l155.484,35.867l-11.565-39.71c-6.425-16.652,6.425-23.057,6.425-23.057
	s147.775-120.41,143.919-119.129c-3.855,1.281-38.55-17.933-38.55-17.933c-2.57-11.529,25.7-106.32,25.7-106.32
	c-98.945,24.338-95.09,14.091-95.09,14.091s0,0-12.85-44.834l-68.105,74.296c-20.56,20.495-19.275-7.686-19.275-7.686l28.27-158.839
	c-53.97,32.024-57.825,23.057-57.825,23.057C511.954,170.489,448.346,52,448.346,52c-60.919,120.899-62.401,106.703-62.401,106.703
	c2.569,7.715-56.521-23.146-56.521-23.146l28.261,153.021c3.854,30.861-16.699,15.431-16.699,15.431l-71.936-79.725
	c-11.561,55.293-16.699,47.578-16.699,47.578c11.561,6.429-92.489-16.717-92.489-16.717
	c30.83,109.301,25.692,102.871,26.976,104.157s-41.106,20.574-41.106,20.574l142.588,115.73
	c20.553,12.859-2.569,55.293-2.569,63.009s98.912-20.574,98.912-20.574c33.399-9.001,53.952-9.001,53.952-9.001"/>
<path id="branch" fill="#4E5B31" d="M473.01,749.56c-0.264-0.125-0.5-0.313-0.695-0.548l-0.25-0.262
	c-1.113-1.161-2.17-2.39-3.167-3.677c-2.667-3.385-6.244-8.342-9.389-12.721c-6.236-8.689-11.389-16.174-12.36-17.583l-1.588-2.309
	l-15.549-5.359l-11.353-5.916l6.066-7.621l20.836,9.971l15.549,3.567l28.754,23.638l-0.022,0.02
	c-0.058,0.054-4.182,3.889-8.28,8.055c-1.828,1.857-4.132,4.252-5.76,6.227c-0.671,0.803-1.293,1.656-1.862,2.551
	c-0.342,0.635-0.653,1.293-0.931,1.969 M366.227,713.716c-14.028-0.143-27.771-4.442-39.829-12.457h-0.014v-0.018
	c1.467-2.734,3.429-5.097,5.762-6.937c3.886-3.189,10.895-6.999,22.222-7.049h0.234c13.413,0,29.829,5.097,48.793,15.151
	C392.152,709.874,379.303,713.783,366.227,713.716l0.02,0.022L366.227,713.716z M307.43,699.148
	c-2.398,0.052-4.703-1.032-6.346-2.983c-1.419-1.844-2.396-4.061-2.843-6.442c-0.641-3.09-0.879-6.27-0.703-9.436
	c0.989-0.479,2.05-0.747,3.127-0.792h0.224c5.027,0,8.989,4.874,10.686,9.705c0.925,2.137,1.121,4.576,0.548,6.863
	c-0.853,1.996-2.709,3.211-4.685,3.066L307.43,699.148z M410.89,685.745c-34.752-5.547-49.482-19.591-55.72-30.394
	c-3.95-6.556-5.808-14.406-5.273-22.287v-0.031h0.026c1.746-0.448,3.531-0.669,5.321-0.656c9.245,0,32.892,5.198,55.654,53.35
	l0.014,0.031l-0.04-0.022L410.89,685.745z M339.661,678.048c-14.846,0-26.149-2.864-33.597-8.503
	c-3.167-2.267-5.718-5.46-7.379-9.23c-0.607-1.43-1.007-2.958-1.189-4.527c4.947-2.242,10.21-3.491,15.545-3.692
	c0.767-0.04,1.54-0.065,2.35-0.067c11.475,0,28.924,4.184,47.338,24.122l0.018,0.02h-0.022c-7.649,1.179-15.361,1.806-23.082,1.88
	L339.661,678.048z M267.771,674.96c-15.655,0-37.162-5.344-50.575-20.333l-0.014-0.018h0.04c10.196-2.692,20.606-4.238,31.076-4.614
	c0.977-0.027,1.962-0.04,2.953-0.043c14.678,0,25.913,3.182,33.396,9.454c2.09,1.403,3.644,3.623,4.36,6.227
	c0.166,1.922-0.653,3.784-2.114,4.811c-3.369,2.844-9.393,4.361-17.907,4.513l-1.201,0.045L267.771,674.96z M217.042,645.87
	c-1.92,0.005-3.742-0.955-4.963-2.611c-1.129-1.658-1.89-3.591-2.218-5.643c-0.51-2.701-0.707-5.464-0.583-8.221v-0.04
	c0.765-0.394,1.596-0.604,2.436-0.615l0,0c1.964,0.081,3.822,1.009,5.183,2.591c1.515,1.66,2.671,3.683,3.379,5.919
	c0.709,1.864,0.837,3.94,0.36,5.896c-0.585,1.649-2.016,2.725-3.603,2.708L217.042,645.87z M334.216,642.917
	c-2.398,0.051-4.703-1.032-6.346-2.983c-1.419-1.844-2.398-4.059-2.847-6.44c-0.641-3.09-0.879-6.27-0.703-9.436
	c0.989-0.479,2.05-0.747,3.127-0.792h0.224c5.027,0,8.989,4.874,10.686,9.705c0.925,2.137,1.121,4.576,0.549,6.863
	c-0.851,1.998-2.709,3.213-4.685,3.066L334.216,642.917z M277.14,640.276c-31.505-1.24-47.846-11.249-56.022-19.429
	c-3.495-3.424-6.376-7.561-8.488-12.188c-0.787-1.736-1.395-3.567-1.818-5.455l0.042-0.02c2.522-0.855,5.143-1.291,7.778-1.296
	h0.737c10.624,0,32.253,4.988,57.76,38.382v0.022L277.14,640.276z M311.353,636.718c-25.347-4.314-39.707-16.476-47.29-25.923
	c-4.681-5.617-8.238-12.282-10.436-19.553c2.562-0.656,5.179-1.009,7.808-1.049c0.338,0,0.691-0.016,1.049-0.016
	s0.731,0,1.107,0.016c12.748,0.311,35.903,6.764,47.756,46.509h0.02L311.353,636.718z M181.227,623.113
	c-8.068,0.029-16.11-1.047-23.943-3.204c-13.271-3.71-18.964-9.373-21.403-13.473c-1.051-1.698-1.754-3.634-2.064-5.67
	c-0.11-0.794-0.132-1.6-0.062-2.401l0.062-0.025c6.855-1.9,13.885-2.898,20.948-2.972c0.478,0,0.961-0.013,1.451-0.013
	c5.756-0.011,11.499,0.611,17.145,1.857c12.806,2.992,24.218,11.049,32.137,22.69v0.02h-0.026c-7.94,2.171-16.09,3.238-24.264,3.177
	L181.227,623.113z M240.064,599.216c-2.388,0.072-4.695-0.985-6.35-2.909c-1.423-1.866-2.402-4.104-2.843-6.507
	c-0.643-3.066-0.879-6.221-0.703-9.365c0.989-0.479,2.05-0.747,3.127-0.792h0.224c5.017,0,8.985,4.876,10.688,9.707
	c0.907,2.119,1.079,4.536,0.486,6.789c-0.813,2.009-2.657,3.24-4.624,3.088L240.064,599.216z M195.821,592.435
	c-8.424-2.665-16.482-6.599-23.957-11.692c-11.099-7.637-24.676-21.146-26.332-42.135l0,0h0.028
	c0.843-0.201,1.698-0.315,2.559-0.345c0.2,0,0.434-0.013,0.669-0.013c3.315,0,10.102,1.043,18.312,8.02
	c10.45,8.906,20.1,24.435,28.728,46.207L195.821,592.435z M224.709,591.25c-6.875-3.491-13.259-8.076-18.956-13.614
	c-14.724-14.164-26.199-32.065-33.465-52.204c1.814-0.951,3.776-1.495,5.778-1.607c0.2-0.016,0.4-0.02,0.613-0.02
	c0.3,0,0.611,0,0.927,0.02c4.827,0.152,12.178,2.394,20.328,12.224c9.361,11.293,17.717,29.85,24.824,55.16l0.02,0.072l-0.06-0.022
	L224.709,591.25z M149.856,588.81c-9.651,0-12.955-5.851-13.928-8.369c-0.969-2.622-1.349-5.471-1.109-8.295v-0.045
	c1.572-0.439,3.185-0.674,4.805-0.703h0.33c6.31-0.172,12.318,3.016,16.184,8.595c0.51,0.848,2.076,3.791,0.781,6.089
	c-1.041,1.813-3.403,2.73-7.067,2.73L149.856,588.81z M128.476,558.667c-7.475,0.02-14.939-0.694-22.304-2.13
	c-8.596-1.748-13.469-9.917-16.042-16.46c-1.73-4.473-2.941-9.177-3.603-13.994h0.024c26.59,0.873,39.148,9.557,45,16.686
	c3.626,4.218,5.886,9.671,6.418,15.489h-0.018c-0.04,0-3.784,0.403-9.489,0.403L128.476,558.667z M156.163,527.743
	c-0.036-0.049-3.073-4.251-6.072-9.461c-3.149-5.471-6.062-11.188-6.062-15.852c0-4.511-0.949-14.021-1.515-19.286
	c-0.717-6.679-1.441-12.397-1.501-12.882h0.026c0.675,0.275,16.632,6.968,16.632,23.699c0,16.731-1.477,33.596-1.491,33.764v0.025
	h-0.02L156.163,527.743z M135.483,526.154c-0.168,0-0.334-0.018-0.5-0.047c-4.717-0.879-13.013-4.909-22.168-10.781
	c-10.174-6.52-18.436-13.506-23.263-19.671c-4.404-5.621-7.007-14.448-7.768-26.239c-0.336-5.339-0.276-10.7,0.174-16.028
	c0.851-0.307,1.74-0.459,2.633-0.448c3.531,0.065,7.301,1.842,12.39,5.76c4.638,3.69,8.985,7.818,12.993,12.338
	c5.089,5.65,9.9,11.604,14.414,17.836l0.064,0.09c0.531,1.063,5.079,10.228,8.622,19.15c1.772,4.106,3.131,8.418,4.052,12.858
	c0.348,1.3,0.348,2.685,0,3.985c-0.148,0.421-0.42,0.774-0.771,1.002c-0.278,0.134-0.579,0.204-0.881,0.201L135.483,526.154z"/>
<g transform="matrix(-1,0,0,1,900,0)">
	<path id="branch_1_" fill="#4E5B31" d="M460.921,747.549c-0.264-0.125-0.5-0.313-0.695-0.548l-0.25-0.262
		c-1.113-1.161-2.17-2.39-3.167-3.677c-2.667-3.385-6.244-8.342-9.389-12.721c-6.236-8.689-11.389-16.174-12.36-17.583l-1.588-2.309
		l-15.549-5.359l-11.353-5.916l6.066-7.621l20.836,9.971l15.549,3.567l28.754,23.638l-0.022,0.02
		c-0.058,0.054-4.182,3.889-8.28,8.055c-1.828,1.857-4.132,4.252-5.76,6.227c-0.671,0.803-1.293,1.656-1.862,2.551
		c-0.342,0.635-0.653,1.293-0.931,1.969 M354.137,711.705c-14.028-0.143-27.771-4.442-39.829-12.457h-0.014v-0.018
		c1.467-2.734,3.429-5.097,5.762-6.937c3.886-3.189,10.895-6.999,22.222-7.049h0.234c13.413,0,29.829,5.097,48.793,15.151
		C380.062,707.863,367.214,711.772,354.137,711.705l0.02,0.022L354.137,711.705z M295.34,697.137
		c-2.398,0.052-4.703-1.032-6.346-2.983c-1.419-1.844-2.396-4.061-2.843-6.442c-0.641-3.09-0.879-6.27-0.703-9.436
		c0.989-0.479,2.05-0.747,3.127-0.792h0.224c5.027,0,8.989,4.874,10.686,9.705c0.925,2.137,1.121,4.576,0.548,6.863
		c-0.853,1.996-2.709,3.211-4.685,3.066L295.34,697.137z M398.8,683.734c-34.752-5.547-49.482-19.591-55.72-30.394
		c-3.95-6.556-5.808-14.406-5.273-22.287v-0.031h0.026c1.746-0.448,3.531-0.669,5.321-0.656c9.245,0,32.892,5.198,55.654,53.35
		l0.014,0.031l-0.04-0.022L398.8,683.734z M327.571,676.037c-14.846,0-26.149-2.864-33.597-8.503
		c-3.167-2.267-5.718-5.46-7.379-9.23c-0.607-1.43-1.007-2.958-1.189-4.527c4.947-2.242,10.21-3.491,15.545-3.692
		c0.767-0.04,1.539-0.065,2.35-0.067c11.475,0,28.924,4.184,47.338,24.122l0.018,0.02h-0.022c-7.649,1.179-15.361,1.806-23.082,1.88
		L327.571,676.037z M255.681,672.949c-15.655,0-37.162-5.344-50.575-20.333l-0.014-0.018h0.04
		c10.196-2.692,20.606-4.238,31.076-4.614c0.977-0.027,1.962-0.04,2.953-0.043c14.678,0,25.913,3.182,33.396,9.454
		c2.09,1.403,3.644,3.623,4.36,6.227c0.166,1.922-0.653,3.784-2.114,4.811c-3.369,2.844-9.393,4.361-17.907,4.513l-1.201,0.045
		L255.681,672.949z M204.952,643.859c-1.92,0.005-3.742-0.955-4.963-2.611c-1.129-1.658-1.89-3.591-2.218-5.643
		c-0.51-2.701-0.707-5.464-0.583-8.221v-0.04c0.765-0.394,1.596-0.604,2.436-0.615l0,0c1.964,0.081,3.822,1.009,5.183,2.591
		c1.515,1.66,2.671,3.683,3.379,5.919c0.709,1.864,0.837,3.94,0.36,5.896c-0.585,1.649-2.016,2.725-3.603,2.708L204.952,643.859z
		 M322.126,640.906c-2.398,0.051-4.703-1.032-6.346-2.983c-1.419-1.844-2.398-4.059-2.847-6.44c-0.641-3.09-0.879-6.27-0.703-9.436
		c0.989-0.479,2.05-0.747,3.127-0.792h0.224c5.027,0,8.989,4.874,10.686,9.705c0.925,2.137,1.121,4.576,0.549,6.863
		c-0.851,1.998-2.709,3.213-4.685,3.066L322.126,640.906z M265.05,638.265c-31.505-1.24-47.846-11.249-56.022-19.429
		c-3.495-3.424-6.376-7.561-8.488-12.188c-0.787-1.736-1.395-3.567-1.818-5.455l0.042-0.02c2.523-0.855,5.143-1.291,7.778-1.296
		h0.737c10.624,0,32.253,4.988,57.76,38.382v0.022L265.05,638.265z M299.264,634.707c-25.347-4.314-39.707-16.476-47.29-25.923
		c-4.681-5.617-8.238-12.282-10.436-19.553c2.563-0.656,5.179-1.009,7.808-1.049c0.338,0,0.691-0.016,1.049-0.016
		c0.358,0,0.731,0,1.107,0.016c12.748,0.311,35.903,6.764,47.756,46.509h0.02L299.264,634.707z M169.137,621.102
		c-8.068,0.029-16.11-1.047-23.943-3.204c-13.271-3.71-18.964-9.373-21.403-13.473c-1.051-1.698-1.754-3.634-2.064-5.67
		c-0.11-0.794-0.132-1.6-0.062-2.401l0.062-0.025c6.855-1.9,13.885-2.898,20.948-2.972c0.478,0,0.961-0.013,1.451-0.013
		c5.756-0.011,11.499,0.611,17.145,1.857c12.806,2.992,24.218,11.049,32.137,22.69v0.02h-0.026
		c-7.94,2.171-16.09,3.238-24.264,3.177L169.137,621.102z M227.974,597.205c-2.388,0.072-4.695-0.985-6.35-2.909
		c-1.423-1.866-2.402-4.104-2.843-6.507c-0.643-3.066-0.879-6.221-0.703-9.365c0.989-0.479,2.05-0.747,3.127-0.792h0.224
		c5.017,0,8.985,4.876,10.688,9.707c0.907,2.119,1.079,4.536,0.487,6.789c-0.813,2.009-2.657,3.24-4.625,3.088L227.974,597.205z
		 M183.731,590.424c-8.424-2.665-16.482-6.599-23.957-11.692c-11.099-7.637-24.676-21.146-26.332-42.135l0,0h0.028
		c0.843-0.201,1.698-0.315,2.559-0.345c0.2,0,0.434-0.013,0.669-0.013c3.315,0,10.102,1.043,18.312,8.02
		c10.45,8.906,20.1,24.435,28.728,46.207L183.731,590.424z M212.619,589.239c-6.875-3.491-13.259-8.076-18.956-13.614
		c-14.724-14.164-26.199-32.065-33.464-52.204c1.814-0.951,3.776-1.495,5.778-1.607c0.2-0.016,0.4-0.02,0.613-0.02
		c0.3,0,0.611,0,0.927,0.02c4.827,0.152,12.178,2.394,20.328,12.224c9.361,11.293,17.717,29.85,24.824,55.16l0.02,0.072l-0.06-0.022
		L212.619,589.239z M137.767,586.799c-9.651,0-12.955-5.851-13.928-8.369c-0.969-2.622-1.349-5.471-1.109-8.295v-0.045
		c1.572-0.439,3.185-0.674,4.805-0.703h0.33c6.31-0.172,12.318,3.016,16.184,8.595c0.51,0.848,2.076,3.791,0.781,6.089
		c-1.041,1.813-3.403,2.73-7.067,2.73L137.767,586.799z M116.386,556.656c-7.475,0.02-14.938-0.694-22.304-2.13
		c-8.596-1.748-13.469-9.917-16.042-16.46c-1.73-4.473-2.941-9.177-3.603-13.994h0.024c26.59,0.873,39.148,9.557,45,16.686
		c3.626,4.218,5.886,9.671,6.418,15.489h-0.018c-0.04,0-3.784,0.403-9.489,0.403L116.386,556.656z M144.073,525.732
		c-0.036-0.049-3.073-4.251-6.072-9.461c-3.149-5.471-6.062-11.188-6.062-15.852c0-4.511-0.949-14.021-1.515-19.286
		c-0.717-6.679-1.441-12.397-1.501-12.882h0.026c0.675,0.275,16.632,6.968,16.632,23.699c0,16.731-1.477,33.596-1.491,33.764v0.025
		h-0.02L144.073,525.732z M123.393,524.143c-0.168,0-0.334-0.018-0.5-0.047c-4.717-0.879-13.013-4.909-22.168-10.781
		c-10.174-6.52-18.436-13.506-23.263-19.671c-4.404-5.621-7.007-14.448-7.768-26.239c-0.336-5.339-0.276-10.7,0.174-16.028
		c0.851-0.307,1.74-0.459,2.633-0.448c3.531,0.065,7.301,1.842,12.39,5.76c4.638,3.69,8.985,7.818,12.993,12.338
		c5.089,5.65,9.9,11.604,14.414,17.836l0.064,0.09c0.531,1.063,5.079,10.228,8.622,19.15c1.772,4.106,3.131,8.418,4.052,12.858
		c0.348,1.3,0.348,2.685,0,3.985c-0.148,0.421-0.42,0.774-0.771,1.002c-0.278,0.134-0.579,0.204-0.881,0.201L123.393,524.143z"/>
</g>
</svg>
